<?xml version="1.0" encoding="utf-8"?>
<!-- Generator: Adobe Illustrator 19.0.0, SVG Export Plug-In . SVG Version: 6.00 Build 0)  -->
<svg version="1.0" id="Layer_1" xmlns="http://www.w3.org/2000/svg" xmlns:xlink="http://www.w3.org/1999/xlink" x="0px" y="0px"
	 viewBox="0 0 360 504" style="enable-background:new 0 0 360 504;" xml:space="preserve">
<style type="text/css">
	.st0{fill:#FFFFFF;}
</style>
<g>
	<g>
		<path class="st0" d="M48.5,69.4c88,0,176,0,264,0c0,116.7,0,233.4,0,350.1c-88,0-176,0-264,0C48.5,302.8,48.5,186.1,48.5,69.4z
			 M219.6,301.2c1.3,0.7,2.1,1.1,2.9,1.6c17.9,10.4,35.8,20.8,53.6,31.3c1.1,0.7,2,1.1,3.4,0.3c10.1-5.9,20.2-11.7,30.3-17.5
			c2.2-1.3,2.2-4.6-0.1-5.9c-2.8-1.6-5.4-3.5-8.4-4.7c-4.4-1.8-6.1-4.7-5.4-9.4c0.2-1.4,0.4-2.3,1.7-3c4-2.2,7.9-4.5,11.8-6.8
			c3.3-1.9,3.3-4.8,0.1-6.7c-18.6-10.9-37.2-21.9-55.7-32.8c-0.7-0.4-1.4-0.9-2.3-1.5c1.1-0.7,1.9-1.1,2.7-1.6
			c16.6-9.8,33.3-19.5,49.9-29.3c2.7-1.6,2.7-4.4,0-6c-3.7-2.2-7.5-4.3-11.2-6.4c-1.1-0.6-1.7-1.3-1.7-2.7c0.1-3-0.1-6,0.1-8.9
			c0.1-0.9,0.7-2,1.5-2.5c3.5-2.2,7.1-4.2,10.7-6.4c2.8-1.7,2.8-4.4,0-6.1c-9.8-5.6-19.6-11.3-29.3-17c-1.5-0.9-2.5-0.9-4,0
			c-16,9.4-32,18.6-47.9,28c-0.8,0.4-1.6,0.9-2.7,1.5c0-1.4,0-2.3,0-3.3c0-31.8,0-63.5,0-95.3c0-3.2-2.7-4.8-5.5-3.2
			c-2,1.2-4.1,2.4-6.1,3.5c-2.6,1.5-5.2,4-7.8,4c-2.6,0-5.1-2.7-7.8-4c-1.4-0.7-1.8-1.7-1.8-3.2c0.1-4.5,0-8.9,0-13.4
			c0-2.9-2.8-4.5-5.3-3c-9.8,5.6-19.5,11.3-29.4,16.9c-1.8,1-2.3,2-2.3,4c0.1,31.5,0.2,63,0.2,94.6c0,1,0,2,0,3.3
			c-1.2-0.6-1.9-1-2.7-1.4c-15.4-9-30.7-17.9-46.1-26.9c-1-0.6-1.9-1.1-3.2-0.3c-10.1,6-20.3,11.8-30.5,17.7
			c-2.1,1.2-2.1,4.2,0.1,5.4c2.1,1.3,4.1,2.8,6.3,3.6c5.4,2.1,7.5,5.7,6.5,11.3c-0.3,1.6-0.6,2.5-2,3.3c-3.6,1.9-7.1,4-10.6,6.1
			c-3.2,1.9-3.2,4.4,0,6.3c16.5,9.6,33,19.1,49.4,28.7c0.7,0.4,1.4,0.9,2.4,1.5c-1.1,0.7-1.9,1.1-2.7,1.6
			c-18.5,10.8-37,21.6-55.4,32.4c-2.5,1.5-2.5,4.7,0,6.1c2.3,1.3,4.6,2.6,6.9,4c2.3,1.3,5.4,2.2,6.6,4.3c1.2,2,0.4,5.2,0.5,7.8
			c0,0.4,0,0.8,0,1.2c0.2,1.5-0.5,2.2-1.7,2.9c-3.9,2.2-7.8,4.4-11.6,6.7c-2.7,1.5-2.7,4.7,0,6.2c9.8,5.7,19.6,11.3,29.3,17
			c1.6,0.9,2.7,0.9,4.2,0c17.1-10.1,34.2-20,51.4-30c0.8-0.5,1.6-0.9,2.8-1.5c0,1.4,0,2.4,0,3.4c0.1,26,0.2,51.9,0.3,77.9
			c0,3.2,2.4,4.5,5.1,2.9c3.7-2.1,7.4-4.4,11.2-6.4c0.8-0.4,2.3-0.4,3.1,0c2.6,1.3,5,2.9,7.6,4.3c1.3,0.7,1.8,1.5,1.7,2.9
			c-0.1,4.2,0,8.3,0,12.5c0,3,2.5,4.4,5,2.9c9.8-5.6,19.5-11.3,29.4-16.9c1.7-0.9,2.2-2,2.2-3.9c-0.1-26.1,0-52.2,0-78.3
			C219.6,303.6,219.6,302.6,219.6,301.2z"/>
		<path d="M219.6,301.2c0,1.4,0,2.4,0,3.4c0,26.1,0,52.2,0,78.3c0,1.9-0.6,2.9-2.2,3.9c-9.8,5.6-19.6,11.2-29.4,16.9
			c-2.6,1.5-5,0.1-5-2.9c0-4.2-0.1-8.3,0-12.5c0-1.5-0.5-2.3-1.7-2.9c-2.6-1.4-5-3-7.6-4.3c-0.9-0.4-2.3-0.4-3.1,0
			c-3.8,2-7.5,4.2-11.2,6.4c-2.7,1.6-5.1,0.2-5.1-2.9c-0.1-26-0.2-51.9-0.3-77.9c0-1,0-2,0-3.4c-1.2,0.6-2,1-2.8,1.5
			c-17.1,10-34.3,20-51.4,30c-1.6,0.9-2.7,0.9-4.2,0c-9.7-5.7-19.5-11.3-29.3-17c-2.7-1.5-2.7-4.7,0-6.2c3.9-2.2,7.7-4.5,11.6-6.7
			c1.2-0.7,2-1.5,1.7-2.9c-0.1-0.4,0-0.8,0-1.2c-0.1-2.6,0.7-5.8-0.5-7.8c-1.2-2-4.3-2.9-6.6-4.3c-2.3-1.4-4.6-2.6-6.9-4
			c-2.5-1.4-2.5-4.7,0-6.1c18.5-10.8,37-21.6,55.4-32.4c0.8-0.5,1.6-0.9,2.7-1.6c-1-0.6-1.7-1-2.4-1.5c-16.5-9.6-33-19.1-49.4-28.7
			c-3.2-1.9-3.3-4.4,0-6.3c3.5-2,7-4.1,10.6-6.1c1.4-0.8,1.8-1.7,2-3.3c1-5.7-1.1-9.3-6.5-11.3c-2.2-0.9-4.2-2.4-6.3-3.6
			c-2.1-1.3-2.2-4.2-0.1-5.4c10.2-5.9,20.4-11.7,30.5-17.7c1.3-0.8,2.2-0.3,3.2,0.3c15.4,9,30.7,17.9,46.1,26.9
			c0.7,0.4,1.5,0.8,2.7,1.4c0-1.4,0-2.4,0-3.3c-0.1-31.5-0.1-63-0.2-94.6c0-2,0.5-3,2.3-4c9.8-5.5,19.6-11.2,29.4-16.9
			c2.5-1.4,5.2,0.1,5.3,3c0,4.5,0.1,8.9,0,13.4c0,1.5,0.3,2.5,1.8,3.2c2.7,1.3,5.2,4,7.8,4c2.6,0,5.2-2.5,7.8-4
			c2.1-1.2,4.1-2.4,6.1-3.5c2.8-1.6,5.5,0,5.5,3.2c0,31.8,0,63.5,0,95.3c0,0.9,0,1.9,0,3.3c1.1-0.6,1.9-1,2.7-1.5
			c16-9.3,32-18.6,47.9-28c1.5-0.9,2.5-0.9,4,0c9.7,5.7,19.5,11.3,29.3,17c2.8,1.6,2.8,4.4,0,6.1c-3.6,2.1-7.2,4.1-10.7,6.4
			c-0.7,0.5-1.4,1.6-1.5,2.5c-0.2,3,0,6-0.1,8.9c-0.1,1.4,0.5,2.1,1.7,2.7c3.8,2.1,7.5,4.3,11.2,6.4c2.7,1.6,2.7,4.4,0,6
			c-16.6,9.8-33.3,19.5-49.9,29.3c-0.8,0.5-1.6,1-2.7,1.6c0.9,0.6,1.6,1.1,2.3,1.5c18.6,10.9,37.2,21.9,55.7,32.8
			c3.3,1.9,3.2,4.8-0.1,6.7c-3.9,2.3-7.8,4.6-11.8,6.8c-1.3,0.7-1.5,1.6-1.7,3c-0.8,4.7,0.9,7.6,5.4,9.4c2.9,1.2,5.6,3.1,8.4,4.7
			c2.2,1.3,2.3,4.6,0.1,5.9c-10.1,5.9-20.3,11.6-30.3,17.5c-1.4,0.8-2.3,0.3-3.4-0.3c-17.9-10.4-35.8-20.9-53.6-31.3
			C221.7,302.3,220.9,301.9,219.6,301.2z M303.4,177.8c-0.6-0.4-0.9-0.7-1.2-0.9c-9.6-5.5-19.1-11.1-28.7-16.5
			c-0.7-0.4-2.1-0.2-2.9,0.3c-16.4,9.5-32.8,19-49.2,28.5c-1.4,0.8-1.9,1.7-1.9,3.3c0.1,10.3,0,20.7,0.1,31.1c0,1.8-0.5,2.8-2.1,3.7
			c-9.8,5.6-19.6,11.3-29.3,16.9c-2.6,1.5-4.9,0.2-4.9-2.9c0-1.3,0-2.7,0-4c-0.1-3.4,1-7.6-0.6-10.1c-1.6-2.7-5.8-3.7-8.8-5.6
			c-1.2-0.7-2.1-0.6-3.2,0.1c-3.8,2.3-7.7,4.5-11.6,6.6c-0.7,0.4-1.6,0.3-2.4,0.4c-1,0.1-2.2-0.2-2.9,0.3
			c-28.4,16.5-56.7,33.1-85.1,49.6c-0.8,0.5-1.5,1-2.5,1.6c0.7,0.5,1.2,0.8,1.6,1.1c9.2,5.3,18.4,10.5,27.5,15.9
			c1.5,0.9,2.6,0.8,4-0.1c18.5-10.8,37-21.5,55.4-32.3c47-27.4,94.1-54.9,141.1-82.4C298.2,180.8,300.6,179.4,303.4,177.8z
			 M186.9,243.3c1.1-0.6,1.9-1,2.6-1.4c8.8-5.1,17.6-10.2,26.5-15.2c1.7-1,2.3-2,2.3-4c-0.1-43.5,0-87,0-130.5
			c0-0.8-0.1-1.6-0.1-2.7c-0.8,0.4-1.4,0.7-1.9,1c-9.1,5.2-18.2,10.5-27.3,15.7c-1.6,0.9-2.1,1.9-2.1,3.7c0.1,43.5,0,87,0,130.5
			C186.9,241.2,186.9,242.1,186.9,243.3z M309.7,282c-0.9-0.6-1.3-0.9-1.8-1.2c-29.1-17.1-58.2-34.2-87.3-51.4
			c-1.3-0.8-2.2-0.6-3.4,0.1c-7.5,4.4-15,8.8-22.5,13.1c-2.3,1.3-4.6,2.7-7,4.1c0.6,0.5,1,0.8,1.5,1.1
			c29.2,17.1,58.5,34.1,87.7,51.2c1.3,0.8,2.3,0.8,3.6,0c8.9-5.2,17.8-10.3,26.6-15.4C307.8,283.2,308.6,282.7,309.7,282z
			 M186.9,402.6c0.7-0.3,1-0.4,1.3-0.5c9.6-5.5,19.2-11,28.7-16.6c0.8-0.5,1.4-1.8,1.4-2.8c0.1-26.8,0-53.6,0.1-80.4
			c0-1.5-0.5-2.4-1.8-3.1c-8.8-5-17.5-10.2-26.2-15.3c-2.6-1.5-3.4-1.1-3.4,2.1c0,37.9,0,75.9,0,113.8
			C186.9,400.6,186.9,401.4,186.9,402.6z M154,227.5c0.1-1,0.2-1.5,0.2-1.9c0-10.9,0-21.8-0.1-32.7c0-0.9-0.9-2.1-1.7-2.6
			c-15.7-9.2-31.4-18.3-47.1-27.6c-1.5-0.9-2.6-0.8-4,0.1c-7.8,4.6-15.7,9.1-23.6,13.7c-1.8,1-3.5,2.1-5.6,3.3
			C99.5,195.7,126.6,211.5,154,227.5z M171.4,83.9c-3.9,2.2-7.2,4.3-10.6,6c-1.9,1-2.5,2.2-2.5,4.4c0.1,43.3,0.1,86.5,0.1,129.8
			c0,0.8,0,1.6,0,2.9c3.9-2.3,7.3-4.3,10.9-6.2c1.7-0.9,2.2-2.1,2.2-3.9c0-43.3,0-86.7,0-130C171.4,86.1,171.4,85.2,171.4,83.9z
			 M84.6,323.4c3.9,2.3,7.4,4.2,10.8,6.3c1.6,1,2.8,1,4.4,0c32.4-19,64.8-38,97.3-56.7c4.2-2.4,5.9-4.9,5.5-9.7
			c-0.2-2.8-1.9-3.6-3.6-4.8c-1.6-1.2-2.7-0.3-4,0.4c-30.7,17.9-61.5,35.9-92.2,53.8C96.9,316.2,90.9,319.7,84.6,323.4z M172.8,83.6
			c0,1.6,0,2.6,0,3.6c0,38.1,0,76.2,0.1,114.3c0,5.4,0,10.8,0,16.2c0,0.7,0.2,1.8,0.7,2.1c3,1.9,6,3.6,9.4,5.5c0-1.6,0-2.8,0-3.9
			c-0.1-37.7-0.1-75.4-0.3-113.1c0-2.5,0.6-4,2.9-5.1c3-1.4,5.9-3.3,8.8-5c0.5-0.3,0.9-0.7,1.6-1.2
			C188.3,92.6,180.8,88.2,172.8,83.6z M291.2,322.6c-1-0.6-1.6-1.1-2.3-1.4c-5.7-3.4-11.5-6.7-17.2-10.1c-22.2-13-44.5-26-66.8-39
			c-0.7-0.4-1.8-0.8-2.3-0.5c-4.1,2.3-8.1,4.7-12.3,7.2c0.7,0.5,1.2,0.8,1.7,1.1c14.5,8.5,29.1,17,43.6,25.5
			c13.5,7.9,27,15.8,40.6,23.7c0.8,0.5,2.2,0.7,2.9,0.3C283.1,327.3,287,325,291.2,322.6z M83.7,322.1
			c37.6-21.9,74.7-43.6,112.2-65.5c-2.6-1.5-4.9-2.7-7-4.2c-1.9-1.4-3.4-1.2-5.5,0c-28,16.4-56,32.8-84,49.2c-1.7,1-3,1.1-4.7,0
			c-3.5-2.2-7.1-4.1-11-6.4C83.7,304.4,83.7,313,83.7,322.1z M171.1,293.2c-3.8,2.2-7.2,4.3-10.7,6.2c-1.7,0.9-2.2,2-2.2,3.9
			c0,26.8,0,53.6,0,80.4c0,0.8,0,1.5,0,2.8c3.9-2.3,7.3-4.4,10.9-6.3c1.7-0.9,2.2-2,2.2-3.9c-0.1-26.7-0.1-53.4-0.1-80.2
			C171.3,295.3,171.2,294.5,171.1,293.2z M182.6,384.6c0-32.8,0-65.3,0-98.2c-2.9,1.7-5.3,3.2-7.8,4.5c-1.5,0.8-2,1.8-2,3.5
			c0.1,18.7,0,37.5,0,56.2c0,8.8,0,17.6,0,26.3c0,0.9,0.3,2.2,1,2.6C176.7,381.3,179.6,382.8,182.6,384.6z M234.4,235.9
			c3.9,2.3,7.4,4.3,10.8,6.5c1.6,1.1,2.8,1,4.5,0c15.7-9.3,31.5-18.4,47.3-27.6c2.2-1.3,4.4-2.6,6.9-4c-4-2.3-7.8-4.4-11.4-6.7
			c-1.3-0.8-2.3-0.7-3.6,0.1c-8.6,5.1-17.3,10.2-25.9,15.2C253.5,224.8,244.2,230.2,234.4,235.9z M204,261.4c0,2.4,0.1,4.3,0,6.2
			c-0.1,1.6,0.5,2.5,1.9,3.3c28,16.4,56,32.8,84,49.1c0.6,0.4,1.3,0.7,2,1c0-8.1,0-15.8,0-23.9c-3.7,2.1-7.2,4-10.4,6.1
			c-2,1.3-3.6,1.2-5.7,0c-22.9-13.5-45.8-26.9-68.8-40.3C206.1,262.6,205.2,262.1,204,261.4z M140.9,234.6c-1.4-0.8-2.5-1.5-3.5-2.1
			c-16.8-9.7-33.6-19.5-50.4-29.1c-0.7-0.4-1.9-0.9-2.5-0.6c-4.1,2.2-8.2,4.7-12.3,7.1c0.3,0.3,0.4,0.5,0.5,0.6
			c18,10.4,35.9,20.8,53.9,31.1c0.5,0.3,1.5,0.6,1.9,0.3C132.5,239.5,136.5,237.1,140.9,234.6z M289.9,190.2
			c-22.4,13.1-44.5,26-66.9,39.2c3.1,1.8,5.6,3.5,8.3,4.8c0.8,0.4,2.2,0.4,2.9,0c18.1-10.5,36.2-21,54.2-31.6
			c0.6-0.3,1.3-1.1,1.3-1.7C289.9,197.6,289.9,194.1,289.9,190.2z M85.7,192.1c0,1.8,0.2,3.1,0,4.4c-0.5,3.3,0.8,5.1,3.8,6.7
			c17.1,9.7,34.1,19.6,51.1,29.4c0.7,0.4,1.9,0.9,2.5,0.6c2.2-1,4.2-2.3,6.5-3.7C128.2,217,107.2,204.7,85.7,192.1z M185.1,106.9
			c-0.3,0.1-0.6,0.2-1,0.2c0.1,45.3,0.1,90.5,0.9,135.8c0.6-1,0.7-2,0.7-3.1c0-36.3,0-72.6,0-108.8c0-7.2,0-14.4,0-21.6
			C185.7,108.5,185.3,107.7,185.1,106.9z M185.4,285.1c-0.2-0.1-0.4-0.1-0.5-0.2c-0.3,0.5-0.7,0.9-0.7,1.4
			c-0.9,5.5,0.1,114.7,1.3,116.4C185.4,363.2,185.4,324.2,185.4,285.1z M156.2,90.8c-0.3,0.1-0.6,0.2-1,0.2c0,0.9,0,1.9,0,2.8
			c0.1,39.2,0.1,78.4,0.2,117.6c0,4.4,0,8.8,0,13.2c0,0.7,0.3,1.5,0.5,2.2c0.2-0.1,0.5-0.1,0.7-0.2c0-1,0-2,0-3
			c0-35.8,0-71.5,0-107.3c0-7.7,0-15.4,0-23.1C156.7,92.5,156.4,91.7,156.2,90.8z M278.1,332.7c1,0.1,1.1,0.2,1.2,0.2
			c9.9-5.7,19.8-11.4,29.7-17.1c0.6-0.3,0.8-1.2,1.2-1.8c-0.2-0.2-0.4-0.3-0.5-0.5c-4.8,2.7-9.5,5.4-14.5,8.2
			c-0.1-0.8-0.2-1.1-0.2-1.4c0-8.3-0.1-16.6,0.1-24.9c0-0.8,0.8-1.8,1.5-2.2c4.2-2.5,8.4-4.9,12.6-7.4c0.7-0.4,1-1.3,1.8-2.3
			c-0.9,0-1.1-0.1-1.2,0c-9.9,5.7-19.8,11.4-29.7,17.1c-0.5,0.3-0.7,1.2-1,1.8c0.2,0.1,0.4,0.3,0.6,0.4c4.4-2.5,8.8-5,13.2-7.5
			c0.2,0.6,0.4,0.8,0.4,1c0,8.5,0.1,16.9,0,25.4c0,0.7-0.8,1.6-1.5,2c-3.8,2.3-7.7,4.5-11.6,6.8C279.5,331,279,331.8,278.1,332.7z
			 M217.3,88.5c-0.1-0.3-0.1-0.6-0.2-0.9c-0.8,0.2-1.8,0.1-2.5,0.5c-4.2,2.4-8.5,4.8-12.6,7.2c-1.1,0.7-2,0.7-3.2,0
			c-7.5-4.4-15-8.7-22.6-13.1c-0.6-0.4-1.2-0.8-2.1-1.5c5.1-3,9.7-5.7,14.4-8.4c-0.1-0.3-0.2-0.6-0.3-0.9c-0.8,0.2-1.8,0.1-2.5,0.5
			c-9.4,5.4-18.7,10.8-28.1,16.2c-0.5,0.3-0.9,0.7-1.4,1c0.1,0.2,0.2,0.5,0.3,0.7c0.8-0.2,1.8-0.3,2.5-0.7c3.8-2.1,7.5-4.2,11.2-6.4
			c1.4-0.8,2.5-0.8,3.8,0c7.6,4.4,15.2,8.8,22.8,13.2c0.5,0.3,0.9,0.7,1.5,1.3c-4.7,2.7-9,5.3-13.4,7.8c0.1,0.2,0.1,0.5,0.2,0.7
			c0.7,0,1.6,0.2,2.2-0.2C197.3,100,207.3,94.3,217.3,88.5z M186.8,248.1c0.2,1,0.1,1.5,0.3,1.7c30.1,17.7,60.3,35.4,90.4,53.1
			c0.2-0.3,0.4-0.5,0.6-0.8c-0.7-0.7-1.4-1.5-2.2-2c-23.3-13.6-46.5-27.2-69.8-40.8C199.8,255.7,193.5,252,186.8,248.1z M65.5,281.6
			c-0.2,0.2-0.3,0.4-0.5,0.5c0.5,0.6,0.9,1.3,1.6,1.7c4.1,2.4,8.2,4.9,12.4,7.2c1.4,0.8,1.9,1.7,1.9,3.4c-0.1,8.6,0,17.2,0,25.9
			c0,0.7-0.2,1.4-0.3,2.6c-5.1-2.9-9.8-5.6-14.5-8.3c-0.2,0.3-0.4,0.5-0.5,0.8c1.7,2.4,4.7,3.2,7.1,4.8c2.6,1.6,5.3,3.1,7.9,4.6
			c2.7,1.6,5.4,3.1,8.1,4.7c2.6,1.5,5.2,3,7.8,4.5c0.2-0.2,0.4-0.5,0.6-0.7c-0.6-0.6-1-1.3-1.7-1.7c-3.7-2.2-7.4-4.4-11.2-6.5
			c-1.5-0.8-2.1-1.8-2.1-3.5c0.1-8.5,0-17.1,0-25.6c0-0.7,0.1-1.5,0.2-2.8c4.8,2.8,9.3,5.3,13.7,7.8c0.2-0.2,0.4-0.5,0.6-0.7
			c-0.6-0.6-1.1-1.4-1.9-1.8c-9.2-5.4-18.4-10.7-27.7-16C66.6,282,66,281.8,65.5,281.6z M189.1,279.9c0.2,1,0.1,1.7,0.4,1.8
			c29.1,17.1,58.3,34.2,87.5,51.3c0.2-0.3,0.4-0.5,0.6-0.8c-0.8-0.7-1.4-1.5-2.3-2c-24.4-14.2-48.7-28.4-73.1-42.7
			C198.1,285.1,193.9,282.7,189.1,279.9z M98.1,333.2c0.2,0.2,0.4,0.4,0.6,0.6c0.7-0.4,1.5-0.8,2.2-1.2c11.4-6.7,22.7-13.3,34.1-20
			c17-9.9,34-19.9,50.9-29.8c0.8-0.4,1.3-1.2,2-1.8c-0.2-0.2-0.4-0.4-0.5-0.6c-0.9,0.5-1.8,1-2.6,1.5c-16.3,9.5-32.5,19-48.8,28.4
			c-11.9,6.9-23.8,13.9-35.7,20.9C99.4,331.6,98.8,332.5,98.1,333.2z M97.6,300.1c0.2,0.2,0.4,0.5,0.6,0.7c0.9-0.5,1.8-1,2.6-1.5
			c10.9-6.4,21.8-12.7,32.7-19.1c16.7-9.8,33.4-19.5,50.1-29.3c0.8-0.5,1.4-1.2,2-1.9c-0.2-0.2-0.4-0.4-0.5-0.6
			c-0.8,0.4-1.6,0.9-2.4,1.3c-9.8,5.7-19.6,11.4-29.4,17.2c-17.9,10.4-35.7,20.8-53.6,31.3C98.9,298.6,98.3,299.4,97.6,300.1z
			 M304.2,178.8c-28.2,16.5-55.9,32.6-83.6,48.8C222.9,228.4,303.3,181.3,304.2,178.8z M71.9,181.1c-0.2,0.2-0.4,0.5-0.6,0.7
			c0.7,0.6,1.3,1.2,2,1.6c14.7,8.6,29.5,17.3,44.2,25.9c10.5,6.2,21.1,12.4,31.6,18.5c0.7,0.4,1.6,0.5,2.4,0.8
			c0.1-0.3,0.2-0.5,0.3-0.8C125.2,212.2,98.6,196.6,71.9,181.1z M156.6,302c-0.3,0-0.5-0.1-0.8-0.1c-0.1,0.8-0.4,1.7-0.4,2.5
			c0,6.9,0,13.8,0,20.7c0,19.4,0,38.9,0.1,58.3c0,0.9,0.2,1.9,0.4,2.8c0.2,0,0.5-0.1,0.7-0.1C156.6,358.1,156.6,330.1,156.6,302z
			 M309,312.2c-4.4-2.5-8.4-4.8-12.7-7.2c0,5.1,0,9.6,0,14.5C300.6,317.1,304.6,314.8,309,312.2z M79.3,305.8
			c-4.3,2.5-8.3,4.8-12.6,7.3c4.4,2.5,8.4,4.8,12.6,7.2C79.3,315.3,79.3,310.8,79.3,305.8z M176.5,81c4.3,2.5,8.3,4.8,12.5,7.2
			c0-4.9,0-9.5,0-14.4C184.7,76.2,180.8,78.5,176.5,81z M304.6,211.9c-18.8,11-37.2,21.7-55.5,32.5c0.1,0.2,0.1,0.4,0.2,0.6
			c0.6-0.1,1.2,0,1.7-0.2C259,241.1,304,213.9,304.6,211.9z M126.6,243.2C107.8,232.4,89.6,221.8,71,211
			C71.8,213.4,124,243.7,126.6,243.2z"/>
		<path class="st0" d="M303.4,177.8c-2.7,1.6-5.2,3.1-7.6,4.5c-47,27.5-94.1,54.9-141.1,82.4c-18.5,10.8-37,21.5-55.4,32.3
			c-1.5,0.9-2.5,0.9-4,0.1c-9.1-5.3-18.3-10.6-27.5-15.9c-0.5-0.3-0.9-0.6-1.6-1.1c1-0.6,1.7-1.1,2.5-1.6
			c28.3-16.6,56.7-33.1,85.1-49.6c0.8-0.4,2-0.2,2.9-0.3c0.8-0.1,1.7,0,2.4-0.4c3.9-2.1,7.8-4.4,11.6-6.6c1.1-0.7,2-0.8,3.2-0.1
			c3,1.9,7.1,3,8.8,5.6c1.6,2.5,0.5,6.7,0.6,10.1c0,1.3,0,2.7,0,4c0,3.1,2.3,4.4,4.9,2.9c9.8-5.7,19.5-11.3,29.3-16.9
			c1.6-0.9,2.1-1.9,2.1-3.7c-0.1-10.3,0-20.7-0.1-31.1c0-1.6,0.5-2.5,1.9-3.3c16.4-9.5,32.8-19,49.2-28.5c0.8-0.5,2.2-0.7,2.9-0.3
			c9.6,5.4,19.2,11,28.7,16.5C302.5,177.1,302.8,177.4,303.4,177.8z"/>
		<path class="st0" d="M186.9,243.3c0-1.3,0-2.1,0-2.9c0-43.5,0-87,0-130.5c0-1.8,0.5-2.8,2.1-3.7c9.1-5.2,18.2-10.4,27.3-15.7
			c0.5-0.3,1.1-0.6,1.9-1c0,1.1,0.1,1.9,0.1,2.7c0,43.5,0,87,0,130.5c0,2-0.6,3-2.3,4c-8.9,5-17.7,10.1-26.5,15.2
			C188.8,242.4,188,242.7,186.9,243.3z"/>
		<path class="st0" d="M309.7,282c-1.1,0.7-1.9,1.2-2.6,1.6c-8.9,5.1-17.8,10.2-26.6,15.4c-1.3,0.8-2.3,0.8-3.6,0
			c-29.2-17.1-58.4-34.1-87.7-51.2c-0.4-0.3-0.8-0.6-1.5-1.1c2.5-1.5,4.8-2.8,7-4.1c7.5-4.4,15-8.7,22.5-13.1
			c1.2-0.7,2.1-0.8,3.4-0.1c29.1,17.2,58.2,34.3,87.3,51.4C308.4,281.1,308.8,281.5,309.7,282z"/>
		<path class="st0" d="M186.9,402.6c0-1.2,0-2,0-2.9c0-37.9,0-75.9,0-113.8c0-3.1,0.8-3.6,3.4-2.1c8.7,5.1,17.4,10.2,26.2,15.3
			c1.3,0.8,1.8,1.6,1.8,3.1c0,26.8,0,53.6-0.1,80.4c0,1-0.6,2.4-1.4,2.8c-9.5,5.6-19.1,11.1-28.7,16.6
			C187.9,402.2,187.6,402.3,186.9,402.6z"/>
		<path class="st0" d="M154,227.5c-27.4-16-54.5-31.8-81.8-47.7c2.1-1.2,3.8-2.3,5.6-3.3c7.9-4.5,15.8-9.1,23.6-13.7
			c1.4-0.8,2.5-1,4-0.1c15.7,9.2,31.4,18.3,47.1,27.6c0.8,0.5,1.7,1.7,1.7,2.6c0.1,10.9,0.1,21.8,0.1,32.7
			C154.2,226,154.1,226.5,154,227.5z"/>
		<path class="st0" d="M171.4,83.9c0,1.4,0,2.2,0,3c0,43.3-0.1,86.7,0,130c0,1.9-0.5,3-2.2,3.9c-3.5,1.9-6.9,3.9-10.9,6.2
			c0-1.3,0-2.1,0-2.9c0-43.3,0-86.5-0.1-129.8c0-2.2,0.6-3.4,2.5-4.4C164.2,88.2,167.5,86.1,171.4,83.9z"/>
		<path class="st0" d="M84.6,323.4c6.4-3.7,12.3-7.2,18.2-10.6c30.7-17.9,61.5-35.8,92.2-53.8c1.3-0.8,2.4-1.6,4-0.4
			c1.7,1.3,3.4,2,3.6,4.8c0.4,4.8-1.4,7.3-5.5,9.7c-32.5,18.7-64.9,37.7-97.3,56.7c-1.6,1-2.8,1-4.4,0
			C92,327.6,88.5,325.7,84.6,323.4z"/>
		<path class="st0" d="M172.8,83.6c8,4.6,15.5,8.9,23.2,13.4c-0.7,0.5-1.1,0.9-1.6,1.2c-2.9,1.7-5.8,3.5-8.8,5
			c-2.3,1.1-3,2.6-2.9,5.1c0.1,37.7,0.2,75.4,0.3,113.1c0,1.1,0,2.3,0,3.9c-3.4-2-6.5-3.7-9.4-5.5c-0.5-0.3-0.7-1.3-0.7-2.1
			c-0.1-5.4,0-10.8,0-16.2c0-38.1,0-76.2-0.1-114.3C172.8,86.3,172.8,85.2,172.8,83.6z"/>
		<path class="st0" d="M291.2,322.6c-4.2,2.4-8.1,4.7-12,6.8c-0.7,0.4-2.1,0.1-2.9-0.3c-13.6-7.8-27.1-15.8-40.6-23.7
			c-14.5-8.5-29.1-17-43.6-25.5c-0.5-0.3-1-0.7-1.7-1.1c4.2-2.5,8.2-4.9,12.3-7.2c0.5-0.3,1.6,0.1,2.3,0.5c22.3,13,44.5,26,66.8,39
			c5.7,3.4,11.5,6.7,17.2,10.1C289.6,321.5,290.2,322,291.2,322.6z"/>
		<path class="st0" d="M83.7,322.1c0-9.1,0-17.8,0-26.8c3.9,2.2,7.5,4.2,11,6.4c1.7,1.1,3,1,4.7,0c28-16.4,56-32.8,84-49.2
			c2-1.2,3.5-1.3,5.5,0c2.1,1.5,4.4,2.7,7,4.2C158.4,278.5,121.3,300.2,83.7,322.1z"/>
		<path class="st0" d="M171.1,293.2c0.1,1.3,0.2,2.1,0.2,2.9c0,26.7,0,53.4,0.1,80.2c0,1.9-0.5,3-2.2,3.9c-3.6,1.9-7,4-10.9,6.3
			c0-1.3,0-2,0-2.8c0-26.8,0-53.6,0-80.4c0-1.9,0.5-3,2.2-3.9C163.9,297.5,167.3,295.4,171.1,293.2z"/>
		<path class="st0" d="M182.6,384.6c-3-1.7-6-3.3-8.8-5.2c-0.6-0.4-1-1.7-1-2.6c-0.1-8.8,0-17.6,0-26.3c0-18.7,0-37.5,0-56.2
			c0-1.7,0.5-2.7,2-3.5c2.5-1.3,4.9-2.8,7.8-4.5C182.6,319.3,182.6,351.8,182.6,384.6z"/>
		<path class="st0" d="M234.4,235.9c9.8-5.7,19.1-11.1,28.5-16.6c8.7-5.1,17.3-10.1,25.9-15.2c1.3-0.8,2.2-0.9,3.6-0.1
			c3.6,2.3,7.4,4.3,11.4,6.7c-2.5,1.4-4.7,2.7-6.9,4c-15.8,9.2-31.5,18.4-47.3,27.6c-1.6,1-2.8,1-4.5,0
			C241.8,240.2,238.2,238.2,234.4,235.9z"/>
		<path class="st0" d="M204,261.4c1.3,0.7,2.2,1.2,3,1.7c22.9,13.4,45.9,26.8,68.8,40.3c2.1,1.2,3.7,1.3,5.7,0
			c3.3-2.1,6.7-3.9,10.4-6.1c0,8.1,0,15.8,0,23.9c-0.7-0.4-1.4-0.7-2-1c-28-16.4-56-32.8-84-49.1c-1.4-0.8-2-1.7-1.9-3.3
			C204.1,265.7,204,263.8,204,261.4z"/>
		<path class="st0" d="M140.9,234.6c-4.4,2.6-8.4,4.9-12.4,7.2c-0.4,0.3-1.4,0-1.9-0.3c-18-10.4-35.9-20.7-53.9-31.1
			c-0.1-0.1-0.2-0.2-0.5-0.6c4.1-2.4,8.1-4.8,12.3-7.1c0.6-0.3,1.8,0.2,2.5,0.6c16.8,9.7,33.6,19.4,50.4,29.1
			C138.4,233.1,139.5,233.8,140.9,234.6z"/>
		<path class="st0" d="M289.9,190.2c0,3.9,0.1,7.3-0.1,10.8c0,0.6-0.7,1.3-1.3,1.7c-18.1,10.6-36.1,21.1-54.2,31.6
			c-0.7,0.4-2.1,0.4-2.9,0c-2.7-1.4-5.3-3-8.3-4.8C245.4,216.3,267.4,203.4,289.9,190.2z"/>
		<path class="st0" d="M85.7,192.1c21.4,12.6,42.5,24.9,64,37.4c-2.4,1.4-4.4,2.7-6.5,3.7c-0.6,0.3-1.8-0.2-2.5-0.6
			c-17-9.8-34-19.7-51.1-29.4c-2.9-1.7-4.3-3.4-3.8-6.7C85.9,195.3,85.7,194,85.7,192.1z"/>
		<path class="st0" d="M185.1,106.9c0.2,0.8,0.6,1.7,0.6,2.5c0,7.2,0,14.4,0,21.6c0,36.3,0,72.6,0,108.8c0,1-0.1,2.1-0.7,3.1
			c-0.8-45.3-0.8-90.5-0.9-135.8C184.4,107,184.7,106.9,185.1,106.9z"/>
		<path class="st0" d="M185.4,285.1c0,39.1,0,78.1,0,117.6c-1.2-1.6-2.1-110.8-1.3-116.4c0.1-0.5,0.5-0.9,0.7-1.4
			C185.1,285,185.3,285,185.4,285.1z"/>
		<path class="st0" d="M156.2,90.8c0.2,0.8,0.5,1.7,0.5,2.5c0,7.7,0,15.4,0,23.1c0,35.8,0,71.5,0,107.3c0,1,0,2,0,3
			c-0.2,0.1-0.5,0.1-0.7,0.2c-0.2-0.7-0.5-1.5-0.5-2.2c-0.1-4.4,0-8.8,0-13.2c-0.1-39.2-0.1-78.4-0.2-117.6c0-0.9,0-1.9,0-2.8
			C155.6,91,155.9,90.9,156.2,90.8z"/>
		<path class="st0" d="M278.1,332.7c0.9-1,1.4-1.8,2.1-2.2c3.8-2.3,7.7-4.5,11.6-6.8c0.7-0.4,1.5-1.3,1.5-2c0.1-8.5,0-16.9,0-25.4
			c0-0.2-0.2-0.4-0.4-1c-4.5,2.5-8.8,5-13.2,7.5c-0.2-0.1-0.4-0.3-0.6-0.4c0.3-0.6,0.5-1.5,1-1.8c9.9-5.8,19.8-11.4,29.7-17.1
			c0.1-0.1,0.3,0,1.2,0c-0.8,1-1.2,1.9-1.8,2.3c-4.2,2.5-8.4,4.8-12.6,7.4c-0.7,0.4-1.5,1.5-1.5,2.2c-0.1,8.3-0.1,16.6-0.1,24.9
			c0,0.3,0.1,0.6,0.2,1.4c5-2.8,9.7-5.5,14.5-8.2c0.2,0.2,0.4,0.3,0.5,0.5c-0.4,0.6-0.7,1.4-1.2,1.8c-9.9,5.7-19.8,11.4-29.7,17.1
			C279.2,332.9,279.1,332.9,278.1,332.7z"/>
		<path class="st0" d="M217.3,88.5c-10,5.8-19.9,11.5-29.9,17.2c-0.6,0.3-1.4,0.1-2.2,0.2c-0.1-0.2-0.1-0.5-0.2-0.7
			c4.4-2.6,8.7-5.1,13.4-7.8c-0.7-0.5-1-1-1.5-1.3c-7.6-4.4-15.2-8.7-22.8-13.2c-1.4-0.8-2.5-0.8-3.8,0c-3.7,2.2-7.4,4.4-11.2,6.4
			c-0.7,0.4-1.7,0.4-2.5,0.7c-0.1-0.2-0.2-0.5-0.3-0.7c0.5-0.4,0.9-0.8,1.4-1c9.4-5.4,18.7-10.8,28.1-16.2c0.7-0.4,1.6-0.4,2.5-0.5
			c0.1,0.3,0.2,0.6,0.3,0.9c-4.7,2.7-9.4,5.5-14.4,8.4c0.9,0.6,1.5,1.1,2.1,1.5c7.5,4.4,15.1,8.7,22.6,13.1c1.2,0.7,2.1,0.6,3.2,0
			c4.2-2.5,8.4-4.9,12.6-7.2c0.7-0.4,1.6-0.3,2.5-0.5C217.1,87.9,217.2,88.2,217.3,88.5z"/>
		<path class="st0" d="M186.8,248.1c6.8,3.9,13,7.6,19.3,11.3c23.3,13.6,46.6,27.2,69.8,40.8c0.8,0.5,1.5,1.3,2.2,2
			c-0.2,0.3-0.4,0.5-0.6,0.8c-30.2-17.7-60.3-35.4-90.4-53.1C186.9,249.6,186.9,249,186.8,248.1z"/>
		<path class="st0" d="M65.5,281.6c0.5,0.3,1.1,0.5,1.6,0.8c9.2,5.3,18.5,10.6,27.7,16c0.7,0.4,1.3,1.2,1.9,1.8
			c-0.2,0.2-0.4,0.5-0.6,0.7c-4.4-2.5-8.8-5-13.7-7.8c-0.1,1.3-0.2,2.1-0.2,2.8c0,8.5,0,17.1,0,25.6c0,1.7,0.6,2.7,2.1,3.5
			c3.8,2.1,7.5,4.3,11.2,6.5c0.7,0.4,1.1,1.1,1.7,1.7c-0.2,0.2-0.4,0.5-0.6,0.7c-2.6-1.5-5.2-3-7.8-4.5c-2.7-1.6-5.4-3.1-8.1-4.7
			c-2.6-1.5-5.3-3-7.9-4.6c-2.4-1.5-5.4-2.4-7.1-4.8c0.2-0.3,0.4-0.5,0.5-0.8c4.7,2.7,9.4,5.4,14.5,8.3c0.1-1.1,0.3-1.9,0.3-2.6
			c0-8.6,0-17.2,0-25.9c0-1.6-0.5-2.6-1.9-3.4c-4.2-2.3-8.3-4.7-12.4-7.2c-0.6-0.4-1.1-1.1-1.6-1.7
			C65.2,281.9,65.3,281.8,65.5,281.6z"/>
		<path class="st0" d="M189.1,279.9c4.7,2.8,8.9,5.2,13.1,7.7c24.4,14.2,48.7,28.4,73.1,42.7c0.9,0.5,1.5,1.3,2.3,2
			c-0.2,0.3-0.4,0.5-0.6,0.8c-29.2-17.1-58.3-34.2-87.5-51.3C189.3,281.6,189.3,280.9,189.1,279.9z"/>
		<path class="st0" d="M98.1,333.2c0.7-0.7,1.3-1.5,2.1-2c11.9-7,23.8-13.9,35.7-20.9c16.3-9.5,32.5-19,48.8-28.4
			c0.9-0.5,1.8-1,2.6-1.5c0.2,0.2,0.4,0.4,0.5,0.6c-0.7,0.6-1.2,1.4-2,1.8c-17,10-34,19.9-50.9,29.8c-11.4,6.7-22.7,13.3-34.1,20
			c-0.7,0.4-1.5,0.8-2.2,1.2C98.5,333.6,98.3,333.4,98.1,333.2z"/>
		<path class="st0" d="M97.6,300.1c0.7-0.6,1.3-1.4,2.1-1.9c17.8-10.4,35.7-20.9,53.6-31.3c9.8-5.7,19.6-11.5,29.4-17.2
			c0.8-0.5,1.6-0.9,2.4-1.3c0.2,0.2,0.4,0.4,0.5,0.6c-0.7,0.6-1.3,1.4-2,1.9c-16.7,9.8-33.4,19.6-50.1,29.3
			c-10.9,6.4-21.8,12.7-32.7,19.1c-0.9,0.5-1.8,1-2.6,1.5C98,300.5,97.8,300.3,97.6,300.1z"/>
		<path class="st0" d="M304.2,178.8c-0.9,2.5-81.3,49.5-83.6,48.8C248.3,211.4,276,195.3,304.2,178.8z"/>
		<path class="st0" d="M71.9,181.1c26.7,15.6,53.3,31.1,80,46.7c-0.1,0.3-0.2,0.5-0.3,0.8c-0.8-0.2-1.7-0.4-2.4-0.8
			c-10.6-6.1-21.1-12.3-31.6-18.5c-14.7-8.6-29.5-17.2-44.2-25.9c-0.7-0.4-1.3-1.1-2-1.6C71.6,181.5,71.7,181.3,71.9,181.1z"/>
		<path class="st0" d="M156.6,302c0,28,0,56.1,0,84.1c-0.2,0-0.5,0.1-0.7,0.1c-0.1-0.9-0.4-1.9-0.4-2.8c0-19.4-0.1-38.9-0.1-58.3
			c0-6.9,0-13.8,0-20.7c0-0.8,0.2-1.7,0.4-2.5C156,301.9,156.3,302,156.6,302z"/>
		<path class="st0" d="M309,312.2c-4.4,2.6-8.4,4.8-12.7,7.3c0-4.9,0-9.4,0-14.5C300.6,307.4,304.6,309.7,309,312.2z"/>
		<path class="st0" d="M79.3,305.8c0,5,0,9.5,0,14.5c-4.3-2.4-8.2-4.7-12.6-7.2C70.9,310.6,74.9,308.3,79.3,305.8z"/>
		<path class="st0" d="M176.5,81c4.3-2.5,8.2-4.7,12.5-7.2c0,4.9,0,9.5,0,14.4C184.8,85.7,180.8,83.4,176.5,81z"/>
		<path class="st0" d="M304.6,211.9c-0.6,2-45.6,29.2-53.6,32.9c-0.5,0.2-1.2,0.1-1.7,0.2c-0.1-0.2-0.1-0.4-0.2-0.6
			C267.4,233.6,285.8,222.9,304.6,211.9z"/>
		<path class="st0" d="M126.6,243.2C124,243.7,71.8,213.4,71,211C89.6,221.8,107.8,232.4,126.6,243.2z"/>
	</g>
</g>
</svg>
